<svg width="53" height="53" viewBox="0 0 53 53" fill="none" xmlns="http://www.w3.org/2000/svg">
<path fill-rule="evenodd" clip-rule="evenodd" d="M20.2513 44.909C20.7418 45.8321 21.2329 46.6639 21.7024 47.401C16.7145 46.2746 12.3863 43.3977 9.39132 39.4466C11.3679 38.3288 13.8996 37.1702 16.9431 36.3224C17.8081 39.7291 19.0285 42.6066 20.2513 44.909ZM24.0241 42.8885C22.9618 40.8886 21.8971 38.391 21.13 35.4316C22.7813 35.1854 24.5441 35.0435 26.4137 35.0435C28.2831 35.0435 30.0458 35.1854 31.6968 35.4313C30.9298 38.3909 29.8651 40.8886 28.8027 42.8885C27.951 44.4923 27.1024 45.7726 26.4134 46.7094C25.7245 45.7726 24.8759 44.4923 24.0241 42.8885ZM19.9998 26.4565C19.9998 28.1284 20.1118 29.7153 20.3094 31.2134C22.2144 30.92 24.251 30.75 26.4137 30.75C28.5761 30.75 30.6128 30.9197 32.5175 31.2134C32.715 29.715 32.8271 28.1284 32.8271 26.4565C32.8271 24.7846 32.715 23.1981 32.5175 21.6996C30.6128 21.993 28.5761 22.163 26.4137 22.163C24.251 22.163 22.2144 21.993 20.3094 21.6996C20.1118 23.1978 19.9998 24.7846 19.9998 26.4565ZM16.1142 20.8143C15.8659 22.5861 15.724 24.4683 15.724 26.4565C15.724 28.4447 15.8659 30.3269 16.1142 32.0987C12.4841 33.0773 9.47809 34.4573 7.15327 35.7851C5.79569 32.9643 5.03467 29.7997 5.03467 26.4565C5.03467 23.1133 5.79569 19.9489 7.15324 17.1279C9.4778 18.4555 12.4839 19.8356 16.1142 20.8143ZM21.13 17.4816C22.7813 17.7276 24.5441 17.8696 26.4137 17.8696C28.2831 17.8696 30.0458 17.7277 31.6968 17.4816C30.9298 14.5222 29.8651 12.0245 28.8027 10.0245C27.951 8.42087 27.1024 7.14033 26.4134 6.20367C25.7245 7.14033 24.8759 8.42087 24.0241 10.0245C22.9618 12.0244 21.8971 14.5222 21.13 17.4816ZM36.7126 20.8146C36.9609 22.5864 37.1028 24.4686 37.1028 26.4565C37.1028 28.4447 36.9609 30.3267 36.7126 32.0984C40.3427 33.0773 43.3488 34.4573 45.6737 35.7851C47.0311 32.964 47.7922 29.7994 47.7922 26.4565C47.7922 23.1136 47.0311 19.9489 45.6737 17.128C43.3491 18.4557 40.343 19.8357 36.7126 20.8146ZM43.4355 13.4667C41.4587 14.5845 38.9271 15.743 35.8839 16.5909C35.0188 13.1841 33.7985 10.3064 32.5757 8.00406C32.0851 7.08082 31.5939 6.24926 31.1245 5.51207C36.1126 6.63848 40.4408 9.51548 43.4355 13.4667ZM16.9431 16.5908C13.8998 15.7429 11.3682 14.5844 9.39134 13.4665C12.3863 9.51542 16.7145 6.63848 21.7021 5.51207C21.2329 6.24926 20.7418 7.08079 20.2513 8.00401C19.0285 10.3064 17.8081 13.184 16.9431 16.5908ZM35.8839 36.3221C35.0188 39.7291 33.7985 42.6066 32.5757 44.909C32.0851 45.8321 31.5939 46.6639 31.1245 47.401C36.1126 46.2746 40.4408 43.3974 43.4358 39.4463C41.459 38.3286 38.9274 37.1702 35.8839 36.3221ZM26.4134 52.2174C40.5821 52.2174 52.068 40.684 52.068 26.4565C52.068 12.2292 40.5821 0.695648 26.4134 0.695648C12.2448 0.695648 0.758911 12.2292 0.758911 26.4565C0.758911 40.684 12.2448 52.2174 26.4134 52.2174Z" fill="#D9D9D9"/>
</svg>
