<svg width="20" height="22" viewBox="0 0 20 22" fill="none" xmlns="http://www.w3.org/2000/svg">
<path d="M9.73666 0.861361C9.38048 1.32734 8.01277 2.71117 6.67355 3.93967C1.98627 8.23235 0.988978 9.65854 0.974731 12.0591C0.974731 12.8922 1.04597 13.1605 1.40214 13.81C2.24272 15.3209 3.80989 16.154 5.74749 16.1399C7.04397 16.1258 8.14099 15.7445 9.01006 15.0103L9.60844 14.5019L9.50871 15.1091C9.30925 16.4082 8.73937 18.371 8.29771 19.2888C7.77057 20.3902 6.63081 21.6046 5.88996 21.8306C5.50529 21.9435 6.54532 21.9859 10.449 22C14.9226 22 15.4497 21.9859 14.9511 21.8023C14.1532 21.5199 13.2129 20.5456 12.6288 19.4018C12.1444 18.4557 11.3038 15.5751 11.3038 14.8549C11.3038 14.516 11.3038 14.516 11.9022 15.0103C12.757 15.7445 13.8683 16.1258 15.1505 16.1399C17.0881 16.154 18.6553 15.3209 19.4959 13.81C20.2652 12.4403 20.023 10.5623 18.869 8.78306C18.1139 7.63928 17.1594 6.62259 14.3669 4.08087C13.0277 2.85238 11.6173 1.44031 11.2326 0.931965C10.8337 0.4095 10.4918 0 10.449 0C10.4063 0 10.0928 0.381258 9.73666 0.861361Z" fill="#D9D9D9"/>
</svg>
