<svg width="226" height="198" viewBox="0 0 226 198" fill="none" xmlns="http://www.w3.org/2000/svg">
<g filter="url(#filter0_d_54_257)">
<path d="M42.034 54.6459C42.6632 54.6269 43.2339 54.3102 43.5193 53.8224C43.8046 53.3347 43.7534 52.7519 43.3949 52.3022L35.1927 42.0089L34.7024 29.5112C34.6805 28.9664 34.3146 28.4723 33.7513 28.2253C33.1879 27.9846 32.5147 28.0226 31.9879 28.333L20.098 35.4338L5.66907 35.8582C5.03982 35.8772 4.4691 36.1939 4.18374 36.6817C3.89839 37.1694 3.9496 37.7522 4.30813 38.2019L12.5104 48.4952L13.0006 60.9929C13.0225 61.5377 13.3884 62.0318 13.9518 62.2788C14.5152 62.5258 15.1883 62.4815 15.7078 62.1711L27.5978 55.0703L42.034 54.6459Z" fill="#B80606"/>
<path d="M69.048 64.9329L65.6018 59.4853C65.2945 59.0103 64.7164 58.7062 64.0872 58.7062C63.4579 58.7062 62.8726 59.0103 62.5726 59.4853L59.1263 64.9329L52.8338 67.9164C52.2777 68.1824 51.9338 68.6828 51.9338 69.2276C51.9338 69.7723 52.2777 70.2791 52.8338 70.5388L59.1263 73.5286L62.5726 78.9698C62.8799 79.4512 63.4579 79.749 64.0872 79.749C64.7164 79.749 65.3018 79.4512 65.6018 78.9698L69.048 73.5286L75.3405 70.5388C75.8966 70.2728 76.2405 69.7723 76.2405 69.2276C76.2405 68.6828 75.8966 68.1761 75.3405 67.9164L69.048 64.9329Z" fill="#08A62A"/>
<path d="M49.2995 23.4429L61.1894 23.4682L71.1915 29.0424C71.7184 29.3401 72.3988 29.3591 72.9549 29.0994C73.511 28.8397 73.8549 28.3393 73.8549 27.7882L73.8842 17.4949L80.323 8.83582C80.6669 8.38608 80.6889 7.79699 80.3889 7.31558C80.0889 6.83417 79.5108 6.53645 78.8743 6.53645L66.9917 6.51745L56.9895 0.943216C56.4627 0.632832 55.7822 0.613829 55.2261 0.873538C54.67 1.13325 54.3261 1.63366 54.3261 2.18475L54.2969 12.4844L47.858 21.1435C47.5141 21.5996 47.4922 22.1886 47.7922 22.6701C48.0922 23.1451 48.6629 23.4429 49.2995 23.4429Z" fill="#C39FF0"/>
<path d="M92.674 45.2583L97.9275 44.6946L102.705 46.6709C103.276 46.9116 103.949 46.8546 104.461 46.5379C104.974 46.2148 105.244 45.6827 105.164 45.138L104.513 40.5899L106.796 36.4536C107.074 35.9595 107.008 35.3767 106.642 34.9333C106.269 34.5026 105.654 34.2682 105.025 34.3316L99.7714 34.8953L94.9934 32.919C94.4227 32.6783 93.7496 32.7353 93.2374 33.052C92.7252 33.3751 92.4545 33.9071 92.535 34.4582L93.1862 39.0063L90.9033 43.1363C90.6253 43.6304 90.6911 44.2195 91.057 44.6566C91.4301 45.1 92.0447 45.3343 92.674 45.2583Z" fill="#0A5FAD"/>
<path d="M218.802 117.122L212.839 111.965L146.373 54.4242C144.229 52.5682 141.419 51.6497 138.602 51.6497C135.785 51.6497 132.975 52.5746 130.832 54.4242C126.551 58.1298 126.544 64.1474 130.832 67.8594L194.905 123.329L203.276 130.569C207.564 134.281 214.5 134.281 218.802 130.569C219.871 129.645 220.675 128.58 221.195 127.428C221.729 126.275 222 125.065 222 123.861C222.014 121.404 220.946 118.971 218.802 117.122ZM149.958 75.4416L136.019 63.3746C134.592 62.1394 134.6 60.1314 136.019 58.8962C136.956 58.0918 138.046 57.9714 138.609 57.9714C139.173 57.9714 140.278 58.0918 141.2 58.8962L155.131 70.9632L149.958 75.4416Z" fill="#0D0D0D"/>
<g filter="url(#filter1_d_54_257)">
<path d="M40.3145 129.353V180.801C40.3145 186.008 61.1968 190.233 86.9595 190.233C112.722 190.233 133.605 186.008 133.605 180.801V129.353C120.398 131.906 103.971 133.344 86.9595 133.344C69.9478 133.338 53.5141 131.906 40.3145 129.353Z" fill="#0D0D0D"/>
</g>
<path d="M86.9595 94.5016C48.063 94.5016 16.5345 101.773 16.5345 110.749C16.5345 115.589 25.7611 119.921 40.3144 122.899C52.7458 125.439 69.0478 126.991 86.9595 126.991C104.879 126.991 121.173 125.432 133.605 122.899C148.158 119.915 157.384 115.589 157.384 110.749C157.384 101.78 125.856 94.5016 86.9595 94.5016ZM86.9595 120.815C62.8796 120.815 43.3655 116.311 43.3655 110.756C43.3655 105.2 62.8796 100.69 86.9595 100.69C111.039 100.69 130.553 105.194 130.553 110.756C130.553 116.304 111.032 120.815 86.9595 120.815Z" fill="#0D0D0D"/>
</g>
<defs>
<filter id="filter0_d_54_257" x="0" y="0.693298" width="226" height="197.539" filterUnits="userSpaceOnUse" color-interpolation-filters="sRGB">
<feFlood flood-opacity="0" result="BackgroundImageFix"/>
<feColorMatrix in="SourceAlpha" type="matrix" values="0 0 0 0 0 0 0 0 0 0 0 0 0 0 0 0 0 0 127 0" result="hardAlpha"/>
<feOffset dy="4"/>
<feGaussianBlur stdDeviation="2"/>
<feComposite in2="hardAlpha" operator="out"/>
<feColorMatrix type="matrix" values="0 0 0 0 0 0 0 0 0 0 0 0 0 0 0 0 0 0 0.25 0"/>
<feBlend mode="normal" in2="BackgroundImageFix" result="effect1_dropShadow_54_257"/>
<feBlend mode="normal" in="SourceGraphic" in2="effect1_dropShadow_54_257" result="shape"/>
</filter>
<filter id="filter1_d_54_257" x="36.3145" y="129.353" width="101.29" height="77.8795" filterUnits="userSpaceOnUse" color-interpolation-filters="sRGB">
<feFlood flood-opacity="0" result="BackgroundImageFix"/>
<feColorMatrix in="SourceAlpha" type="matrix" values="0 0 0 0 0 0 0 0 0 0 0 0 0 0 0 0 0 0 127 0" result="hardAlpha"/>
<feOffset dy="13"/>
<feGaussianBlur stdDeviation="2"/>
<feComposite in2="hardAlpha" operator="out"/>
<feColorMatrix type="matrix" values="0 0 0 0 0 0 0 0 0 0 0 0 0 0 0 0 0 0 0.4 0"/>
<feBlend mode="normal" in2="BackgroundImageFix" result="effect1_dropShadow_54_257"/>
<feBlend mode="normal" in="SourceGraphic" in2="effect1_dropShadow_54_257" result="shape"/>
</filter>
</defs>
</svg>
