<svg width="52" height="53" viewBox="0 0 52 53" fill="none" xmlns="http://www.w3.org/2000/svg">
<path d="M12.4957 15.5698C12.7601 13.5615 15.4779 10.8319 17.6348 11.1348L17.6313 11.1314C19.7304 11.5145 21.392 14.9842 22.329 16.5444C22.9928 17.6764 22.5617 18.8232 21.9425 19.3072C21.1072 19.9538 19.8009 20.846 20.075 21.7418C20.5622 23.3343 26.3472 28.8901 29.1925 30.4695C30.2694 31.0673 31.0504 29.4906 31.7173 28.6828C32.2018 28.0614 33.397 27.6901 34.573 28.3034C36.3293 29.2857 37.9838 30.4273 39.5138 31.7125C40.2779 32.3258 40.4572 33.2323 39.9278 34.1904C38.9952 35.8778 36.2981 38.103 34.3402 37.6507C30.9206 36.8611 17.0912 31.7125 12.6491 16.7963C12.3993 16.0906 12.4622 15.8239 12.4957 15.5698Z" fill="#D9D9D9"/>
<path fill-rule="evenodd" clip-rule="evenodd" d="M26.3472 48.891C23.5158 48.891 21.9492 48.5992 19.4052 47.7799L14.533 50.1195C6.83255 54.8107 5.98409 53.9674 7.83528 46.144V41.1129C2.85222 36.6505 0.893311 31.5052 0.893311 24.4455C0.893311 10.9446 12.2894 0 26.3472 0C40.4049 0 51.8011 10.9446 51.8011 24.4455C51.8011 37.9463 40.4049 48.891 26.3472 48.891ZM12.4633 39.1802L10.9914 37.8621C7.11996 34.3953 5.52129 30.5193 5.52129 24.4455C5.52129 13.3993 14.8454 4.44464 26.3472 4.44464C37.8491 4.44464 47.1731 13.3993 47.1731 24.4455C47.1731 35.4918 37.8491 44.4464 26.3472 44.4464C24.0663 44.4464 22.9965 44.2486 20.8768 43.5659L19.0546 42.979L12.4633 46.144V39.1802Z" fill="#D9D9D9"/>
</svg>
