<svg width="56" height="55" viewBox="0 0 56 55" fill="none" xmlns="http://www.w3.org/2000/svg">
<path d="M2.55861 15.9174C2.68543 13.1461 3.11935 11.3587 3.70618 9.84156L3.71407 9.8206C4.29559 8.27674 5.20657 6.87816 6.3836 5.72218L6.40011 5.70596L6.41633 5.68945C7.57326 4.5109 8.97235 3.60081 10.5149 3.02084L10.5415 3.01067C12.0552 2.422 13.839 1.98967 16.6126 1.86288M2.55861 15.9174C2.42527 18.8784 2.3913 19.7963 2.3913 27.4736C2.3913 35.1525 2.4234 36.0682 2.55852 39.0299M2.55861 15.9174V16.6643M16.6126 1.86288C19.5743 1.72775 20.4919 1.69565 28.169 1.69565C35.8463 1.69565 36.7634 1.7296 39.7242 1.8629M16.6126 1.86288H17.3615M2.55852 39.0299C2.68532 41.8037 3.11764 43.5874 3.70632 45.1011L3.71649 45.1279M2.55852 39.0299L2.60395 39.2691M2.55852 39.0299V38.2812M2.55861 16.6643C2.56897 16.427 2.58014 16.1796 2.5921 15.9166C2.73107 12.8844 3.24653 11.1127 3.73786 9.85615C4.37374 8.2151 5.17924 6.97679 6.40985 5.74108C7.57955 4.54117 9.00152 3.61651 10.5727 3.03407C11.8237 2.54885 13.5907 2.03493 16.6114 1.89647C16.8753 1.88449 17.1234 1.87329 17.3615 1.86288M2.55861 16.6643C2.44887 19.1736 2.42527 20.5578 2.42527 27.4736C2.42527 34.387 2.44887 35.7732 2.55852 38.2812M2.55861 16.6643L2.55852 38.2812M3.71649 45.1279C4.29646 46.6703 5.20655 48.0693 6.38509 49.2263L6.40158 49.2426L6.41777 49.2589C7.5738 50.436 8.97243 51.3471 10.5163 51.9285L10.5393 51.9372C12.0544 52.5248 13.8391 52.9573 16.6126 53.0842M3.71649 45.1279L3.68172 44.9446M3.68172 44.9446L2.60395 39.2691M3.68172 44.9446C3.22397 43.7355 2.75263 42.048 2.60395 39.2691M3.68172 44.9446C3.69778 44.9872 3.7138 45.029 3.72983 45.0702C4.31032 46.6351 5.23009 48.0522 6.42306 49.2193C7.58986 50.4122 9.00632 51.3317 10.5707 51.9123C11.8262 52.4012 13.5952 52.9123 16.6122 53.0506C19.6568 53.1892 20.5975 53.2174 28.169 53.2174C35.7408 53.2174 36.6823 53.1892 39.7269 53.0506C42.7475 52.912 44.5144 52.3982 45.7656 51.9131C47.3307 51.3328 48.7481 50.4127 49.9152 49.2193C51.1078 48.0525 52.0273 46.6362 52.6079 45.0718C53.0968 43.8163 53.608 42.0475 53.746 39.0305C53.8846 35.9858 53.913 35.0432 53.913 27.4736C53.913 19.9038 53.8846 18.9604 53.746 15.9158C53.6069 12.8793 53.0884 11.1097 52.6009 9.85756C51.9636 8.21239 51.1555 6.96814 49.9133 5.72592C48.6735 4.48864 47.4327 3.68002 45.7862 3.0421C44.5296 2.55083 42.7589 2.03545 39.7269 1.89647C39.4631 1.88449 39.2153 1.87332 38.9774 1.8629M2.60395 39.2691C2.59974 39.1907 2.59581 39.1115 2.59212 39.0313C2.58014 38.7674 2.56894 38.5193 2.55852 38.2812M38.9774 1.8629H39.7242M38.9774 1.8629L17.3615 1.86288M38.9774 1.8629C36.4692 1.75324 35.0832 1.72963 28.169 1.72963C21.2555 1.72963 19.8694 1.75322 17.3615 1.86288M39.7242 1.8629C42.4961 1.9897 44.2836 2.42357 45.8011 3.01046L45.822 3.01843C47.3657 3.59995 48.7644 4.51093 49.9204 5.68796L49.9364 5.70431L49.9529 5.72036C51.13 6.87643 52.0409 8.27541 52.622 9.8197L52.6318 9.84582C53.2205 11.3595 53.653 13.1434 53.7796 15.917M53.7796 39.0299C53.653 41.8034 53.2205 43.5882 52.6329 45.1033L52.6242 45.1263C52.0425 46.6703 51.1317 48.0687 49.9545 49.2247L49.938 49.241L49.922 49.2575C48.7649 50.436 47.366 51.3461 45.8233 51.9261L45.7967 51.9364C44.2831 52.5251 42.4991 52.9573 39.7256 53.0842M23.5844 38.5421C25.0379 39.1441 26.5957 39.454 28.169 39.454C31.3465 39.454 34.3939 38.1917 36.6408 35.9451C38.8874 33.6982 40.1497 30.6509 40.1497 27.4736C40.1497 24.2961 38.8874 21.2487 36.6408 19.0019C34.3939 16.7552 31.3465 15.4929 28.169 15.4929C26.5957 15.4929 25.0379 15.8028 23.5844 16.4049C22.1307 17.007 20.8101 17.8894 19.6976 19.0019C18.5851 20.1144 17.7026 21.4352 17.1005 22.8887C16.4984 24.3422 16.1886 25.9003 16.1886 27.4736C16.1886 29.0469 16.4984 30.6048 17.1005 32.0582C17.7026 33.5119 18.5851 34.8325 19.6976 35.9451C20.8101 37.0575 22.1307 37.9401 23.5844 38.5421ZM19.6709 18.9753C21.9249 16.7214 24.9817 15.4552 28.169 15.4552C31.3566 15.4552 34.4134 16.7214 36.6674 18.9753C38.9213 21.2291 40.1874 24.286 40.1874 27.4736C40.1874 30.6609 38.9213 33.7178 36.6674 35.9717C34.4134 38.2256 31.3566 39.4917 28.169 39.4917C24.9817 39.4917 21.9249 38.2256 19.6709 35.9717C17.417 33.7178 16.1508 30.6609 16.1508 27.4736C16.1508 24.286 17.417 21.2291 19.6709 18.9753ZM46.9549 12.657C46.9549 13.5693 46.5923 14.4443 45.9475 15.0894C45.3024 15.7345 44.4274 16.0969 43.5151 16.0969C42.6027 16.0969 41.7279 15.7345 41.0828 15.0894C40.4377 14.4443 40.0751 13.5693 40.0751 12.657C40.0751 11.7447 40.4377 10.8697 41.0828 10.2247C41.7279 9.57956 42.6027 9.21714 43.5151 9.21714C44.4274 9.21714 45.3024 9.57956 45.9475 10.2247C46.5923 10.8697 46.9549 11.7447 46.9549 12.657Z" stroke="#D9D9D9" stroke-width="3" stroke-linejoin="round"/>
</svg>
