<svg width="22" height="22" viewBox="0 0 22 22" fill="none" xmlns="http://www.w3.org/2000/svg">
<path d="M22 12.9153C22.0003 14.1128 21.5736 15.2723 20.7945 16.1916C20.0154 17.1109 18.9333 17.7315 17.7371 17.9451C16.5409 18.1587 15.3065 17.9518 14.2493 17.3604C13.1922 16.7691 12.3794 15.8309 11.9529 14.7095C11.9489 18.0724 12.168 20.31 15.4077 22H6.58708C9.82683 20.3105 10.0459 18.0734 10.0419 14.7095C9.68548 15.6445 9.05862 16.456 8.23888 17.0438C7.41914 17.6316 6.44247 17.9698 5.42965 18.0166C4.41683 18.0635 3.41229 17.8168 2.54026 17.3073C1.66824 16.7977 0.966966 16.0476 0.52318 15.1496C0.0793942 14.2516 -0.0874415 13.2452 0.0433052 12.2548C0.174052 11.2644 0.596646 10.3334 1.25883 9.57712C1.92101 8.82079 2.79373 8.27224 3.76906 7.99929C4.74439 7.72634 5.77956 7.74098 6.74653 8.04139C6.20227 7.27549 5.88171 6.37722 5.81975 5.44433C5.75779 4.51144 5.9568 3.57969 6.39512 2.75047C6.83343 1.92126 7.49427 1.22635 8.30569 0.741394C9.11712 0.256435 10.048 0 10.9972 0C11.9463 0 12.8772 0.256435 13.6886 0.741394C14.5 1.22635 15.1609 1.92126 15.5992 2.75047C16.0375 3.57969 16.2365 4.51144 16.1746 5.44433C16.1126 6.37722 15.792 7.27549 15.2478 8.04139C16.0252 7.79989 16.8495 7.74213 17.6538 7.87279C18.4581 8.00346 19.2198 8.31886 19.8773 8.79348C20.5349 9.26809 21.0697 9.88856 21.4384 10.6046C21.8072 11.3207 21.9996 12.1123 22 12.9153Z" fill="#D9D9D9"/>
</svg>
