<svg width="24" height="22" viewBox="0 0 24 22" fill="none" xmlns="http://www.w3.org/2000/svg">
<path d="M23.9766 6.67063C23.9097 4.34141 22.8439 2.42695 21.3361 1.25653C19.3968 -0.250546 16.7229 -0.527055 14.5004 1.11722C13.7668 1.6618 13.0803 2.41534 12.4868 3.40528C11.8933 2.41534 11.2078 1.6618 10.4733 1.11828C8.25076 -0.527055 5.57789 -0.250546 3.63749 1.25759C2.12865 2.428 1.06388 4.34246 0.99701 6.67168C0.960438 7.90859 1.14852 9.28902 1.8204 10.6853C2.87575 12.8773 7.83384 17.751 12.4482 21.9599L12.4847 22L12.4868 21.9979L12.4889 22L12.5265 21.9599C17.1398 17.7521 22.0968 12.8784 23.1532 10.6853C23.8262 9.28902 24.0121 7.90753 23.9766 6.67063Z" fill="#D9D9D9"/>
</svg>
