<svg xmlns="http://www.w3.org/2000/svg" version="1.1" xmlns:xlink="http://www.w3.org/1999/xlink" width="512" height="512" x="0" y="0" viewBox="0 0 64 64" style="enable-background:new 0 0 512 512" xml:space="preserve" class=""><g><path d="M15.5 8v48a4.505 4.505 0 0 0 4.5 4.5h24a4.505 4.505 0 0 0 4.5-4.5V8A4.505 4.505 0 0 0 44 3.5H20A4.505 4.505 0 0 0 15.5 8zm32 0v48a3.5 3.5 0 0 1-3.5 3.5H20a3.5 3.5 0 0 1-3.5-3.5V8A3.5 3.5 0 0 1 20 4.5h24A3.5 3.5 0 0 1 47.5 8z" fill="#ffffff" opacity="1" data-original="#000000" class=""></path><path d="M17.5 8v48a2.5 2.5 0 0 0 2.5 2.5h24a2.5 2.5 0 0 0 2.5-2.5V8a2.5 2.5 0 0 0-2.478-2.5H20A2.5 2.5 0 0 0 17.5 8zm28 0v48a1.5 1.5 0 0 1-1.5 1.5H20a1.5 1.5 0 0 1-1.5-1.5V8A1.5 1.5 0 0 1 20 6.5h24A1.5 1.5 0 0 1 45.5 8z" fill="#ffffff" opacity="1" data-original="#000000" class=""></path><circle cx="28" cy="53" r="1" fill="#ffffff" opacity="1" data-original="#000000" class=""></circle><circle cx="32" cy="53" r="1" fill="#ffffff" opacity="1" data-original="#000000" class=""></circle><circle cx="36" cy="53" r="1" fill="#ffffff" opacity="1" data-original="#000000" class=""></circle><circle cx="32" cy="9" r="1" fill="#ffffff" opacity="1" data-original="#000000" class=""></circle><path d="M32 32.5a8 8 0 1 0-8-8 8.016 8.016 0 0 0 8 8zM30.5 23v-1a1.5 1.5 0 0 1 3 0v1a1.5 1.5 0 0 1-3 0zm3.5 2.5a1.5 1.5 0 0 1 1.5 1.5v3.533a6.935 6.935 0 0 1-7 0V27a1.5 1.5 0 0 1 1.5-1.5zm-2-8a7.009 7.009 0 0 1 7 7 6.92 6.92 0 0 1-2.5 5.348V27a2.5 2.5 0 0 0-2.5-2.5h-.012A2.476 2.476 0 0 0 34.5 23v-1a2.5 2.5 0 0 0-5 0v1a2.471 2.471 0 0 0 .513 1.5H30a2.5 2.5 0 0 0-2.5 2.5v2.849A6.919 6.919 0 0 1 25 24.5a7.008 7.008 0 0 1 7-7zM52.646 28.475l1.415-1.414a1.5 1.5 0 0 0-2.122-2.122l-1.414 1.415a1.5 1.5 0 0 0 2.121 2.121zm-1.56-1.061a.5.5 0 0 1 .146-.353l1.414-1.415a.5.5 0 0 1 .708.708l-1.415 1.414a.512.512 0 0 1-.707 0 .5.5 0 0 1-.146-.354zM54.061 36.939l-1.415-1.414a1.5 1.5 0 1 0-2.121 2.121l1.414 1.415a1.5 1.5 0 0 0 2.122-2.122zm-.707 1.415a.513.513 0 0 1-.708 0l-1.414-1.415a.5.5 0 0 1 .707-.707l1.415 1.414a.5.5 0 0 1 0 .708zM55 30.5h-2a1.5 1.5 0 0 0 0 3h2a1.5 1.5 0 0 0 0-3zm0 2h-2a.5.5 0 0 1 0-1h2a.5.5 0 0 1 0 1zM11.354 35.525l-1.415 1.414a1.5 1.5 0 0 0 2.122 2.122l1.414-1.415a1.5 1.5 0 0 0 0-2.121 1.537 1.537 0 0 0-2.121 0zm1.414.707a.5.5 0 0 1 0 .707l-1.414 1.415a.513.513 0 0 1-.708 0 .5.5 0 0 1 0-.708l1.415-1.414a.5.5 0 0 1 .706 0zM9.939 27.061l1.415 1.414a1.5 1.5 0 1 0 2.121-2.121l-1.414-1.415a1.5 1.5 0 0 0-2.122 2.122zm.707-1.415a.5.5 0 0 1 .708 0l1.414 1.415a.5.5 0 0 1 0 .707.51.51 0 0 1-.706 0l-1.415-1.414a.5.5 0 0 1 0-.708zM9 33.5h2a1.5 1.5 0 0 0 0-3H9a1.5 1.5 0 0 0 0 3zm0-2h2a.5.5 0 0 1 0 1H9a.5.5 0 0 1 0-1zM26 35.5h12v1H26zM26 38.5h12v1H26zM26 41.5h12v1H26z" fill="#ffffff" opacity="1" data-original="#000000" class=""></path></g></svg>